HIERARCHY
ROOT hip
{
	OFFSET 0.000000 0.000000 0.000000
	CHANNELS 6 Xposition Yposition Zposition Xrotation Zrotation Yrotation 
	JOINT abdomen
	{
		OFFSET 0.000000 3.422050 0.000000
		CHANNELS 3 Xrotation Zrotation Yrotation 
		JOINT chest
		{
			OFFSET 0.000000 8.486693 -0.684411
			CHANNELS 3 Xrotation Zrotation Yrotation 
			JOINT neck
			{
				OFFSET 0.000000 10.266162 -0.273764
				CHANNELS 3 Xrotation Zrotation Yrotation 
				JOINT head
				{
					OFFSET 0.000000 3.148285 0.000000
					CHANNELS 3 Xrotation Zrotation Yrotation 
					End Site
					{
						OFFSET 0.000000 3.148289 0.000000
					}
				}
			}
			JOINT lCollar
			{
				OFFSET 3.422053 6.707223 -0.821293
				CHANNELS 3 Yrotation Zrotation Xrotation 
				JOINT lShldr
				{
					OFFSET 3.285171 0.000000 0.000000
					CHANNELS 3 Zrotation Yrotation Xrotation 
					JOINT lForeArm
					{
						OFFSET 10.129278 0.000000 0.000000
						CHANNELS 3 Yrotation Zrotation Xrotation 
						JOINT lHand
						{
							OFFSET 8.486692 0.000000 0.000000
							CHANNELS 3 Zrotation Yrotation Xrotation 
							End Site
							{
								OFFSET 4.106464 0.000000 0.000000
							}
						}
					}
				}
			}
			JOINT rCollar
			{
				OFFSET -3.558935 6.707223 -0.821293
				CHANNELS 3 Yrotation Zrotation Xrotation 
				JOINT rShldr
				{
					OFFSET -3.148289 0.000000 0.000000
					CHANNELS 3 Zrotation Yrotation Xrotation 
					JOINT rForeArm
					{
						OFFSET -10.266159 0.000000 0.000000
						CHANNELS 3 Yrotation Zrotation Xrotation 
						JOINT rHand
						{
							OFFSET -8.349810 0.000000 0.000000
							CHANNELS 3 Zrotation Yrotation Xrotation 
							End Site
							{
								OFFSET -4.106464 0.000000 0.000000
							}
						}
					}
				}
			}
		}
	}
	JOINT lThigh
	{
		OFFSET 5.338403 -1.642589 1.368821
		CHANNELS 3 Xrotation Zrotation Yrotation 
		JOINT lShin
		{
			OFFSET -2.053232 -20.121670 0.000000
			CHANNELS 3 Xrotation Zrotation Yrotation 
			JOINT lFoot
			{
				OFFSET 0.000000 -19.300380 -1.231939
				CHANNELS 3 Xrotation Yrotation Zrotation 
				End Site
				{
					OFFSET 0.000000 -2.463878 4.653993
				}
			}
		}
	}
	JOINT rThigh
	{
		OFFSET -5.338403 -1.642589 1.368821
		CHANNELS 3 Xrotation Zrotation Yrotation 
		JOINT rShin
		{
			OFFSET 2.053232 -20.121670 0.000000
			CHANNELS 3 Xrotation Zrotation Yrotation 
			JOINT rFoot
			{
				OFFSET 0.000000 -19.300380 -1.231939
				CHANNELS 3 Xrotation Yrotation Zrotation 
				End Site
				{
					OFFSET 0.000000 -2.463878 4.653993
				}
			}
		}
	}
}
MOTION
Frames: 18
Frame Time: 0.099977
-12.138111 13.620281 -0.561709 0.000000 0.000000 0.000000 78.028107 0.016838 -0.029115 37.517429 0.220452 -0.067319 -14.059050 7.157139 1.673681 -35.307613 8.669146 0.204368 16.900064 35.185150 -116.525665 -6.088097 -31.260813 -1.708880 -16.007387 -5.957837 -0.458319 35.990700 1.359537 -16.942810 14.872046 -22.492632 -44.586563 19.406033 30.283340 6.326039 8.209281 8.073709 -0.278727 -37.049709 -34.152454 -7.003920 -51.056747 6.089967 0.001440 145.190674 5.509057 -0.724722 56.105225 8.187260 3.213877 -51.053509 -6.167833 -0.026519 145.204590 -5.603344 0.727910 56.670399 -8.210264 -3.157530 
-12.138111 13.620281 -0.561709 0.000000 0.000000 0.000000 78.028107 0.016838 -0.029115 37.517429 0.220452 -0.067319 -13.525864 7.157168 1.673636 -35.186184 8.471904 0.208700 16.789064 35.332970 -116.458305 -6.389184 -31.440067 -1.550773 -16.007387 -5.957837 -0.458319 35.990700 1.359537 -16.942810 14.370584 -22.497545 -44.882805 19.554277 30.538893 6.401560 8.382260 8.177184 -0.302569 -37.049709 -34.152454 -7.003920 -51.056747 6.089967 0.001440 145.190674 5.509057 -0.724722 56.105225 8.187260 3.213877 -51.053509 -6.167833 -0.026519 145.204590 -5.603344 0.727910 56.670399 -8.210264 -3.157530 
-12.138111 13.620281 -0.561709 0.000000 0.000000 0.000000 78.028107 0.016838 -0.029115 37.517429 0.220452 -0.067319 -12.992440 7.157198 1.673592 -35.064827 8.274637 0.212608 16.677654 35.480705 -116.390480 -6.691511 -31.618647 -1.391214 -16.007387 -5.957837 -0.458319 35.990700 1.359537 -16.942810 13.868768 -22.500071 -45.179287 19.703346 30.794338 6.478069 8.555350 8.280602 -0.326736 -37.049709 -34.152454 -7.003920 -51.056747 6.089967 0.001440 145.190674 5.509057 -0.724722 56.105225 8.187260 3.213877 -51.053509 -6.167833 -0.026519 145.204590 -5.603344 0.727910 56.670399 -8.210264 -3.157530 
-12.138111 13.620281 -0.561709 0.000000 0.000000 0.000000 78.028107 0.016838 -0.029115 37.517429 0.220452 -0.067319 -12.458816 7.157231 1.673548 -34.943531 8.077347 0.216091 16.565819 35.628353 -116.322197 -6.995084 -31.796556 -1.230199 -16.007387 -5.957837 -0.458319 35.990700 1.359537 -16.942810 13.366636 -22.500196 -45.475967 19.853239 31.049662 6.555575 8.728545 8.383954 -0.351227 -37.049709 -34.152454 -7.003920 -51.056747 6.089967 0.001440 145.190674 5.509057 -0.724722 56.105225 8.187260 3.213877 -51.053509 -6.167833 -0.026519 145.204590 -5.603344 0.727910 56.670399 -8.210264 -3.157530 
-12.138111 13.620281 -0.561709 0.000000 0.000000 0.000000 78.028107 0.016838 -0.029115 37.517429 0.220452 -0.067319 -11.925001 7.157259 1.673504 -34.822304 7.880039 0.219152 16.453545 35.775898 -116.253410 -7.299906 -31.973782 -1.067724 -16.007387 -5.957837 -0.458319 35.990700 1.359537 -16.942810 12.864228 -22.497915 -45.772800 20.003977 31.304871 6.634090 8.901851 8.487244 -0.376043 -37.049709 -34.152454 -7.003920 -51.056747 6.089967 0.001440 145.190674 5.509057 -0.724722 56.105225 8.187260 3.213877 -51.053509 -6.167833 -0.026519 145.204590 -5.603344 0.727910 56.670399 -8.210264 -3.157530 
-12.138111 13.620281 -0.561709 0.000000 0.000000 0.000000 78.028107 0.016838 -0.029115 37.517429 0.220452 -0.067319 -11.391025 7.157292 1.673461 -34.701130 7.682712 0.221790 16.340834 35.923344 -116.184128 -7.605982 -32.150307 -0.903785 -16.007387 -5.957837 -0.458319 35.990700 1.359537 -16.942810 12.361580 -22.493227 -46.069756 20.155561 31.559944 6.713619 9.075263 8.590468 -0.401184 -37.049709 -34.152454 -7.003920 -51.056747 6.089967 0.001440 145.190674 5.509057 -0.724722 56.105225 8.187260 3.213877 -51.053509 -6.167832 -0.026518 145.204590 -5.603344 0.727910 56.670399 -8.210264 -3.157530 
-12.138111 13.620281 -0.561709 0.000000 0.000000 0.000000 78.028107 0.016838 -0.029115 37.517429 0.220452 -0.067319 -10.856909 7.157323 1.673417 -34.580017 7.485371 0.224005 16.227684 36.070683 -116.114365 -7.913316 -32.326126 -0.738378 -16.007387 -5.957837 -0.458319 35.990700 1.359537 -16.942810 11.858735 -22.486128 -46.366791 20.308006 31.814882 6.794177 9.248786 8.693627 -0.426650 -37.049709 -34.152454 -7.003920 -51.056747 6.089967 0.001440 145.190674 5.509057 -0.724722 56.105225 8.187260 3.213877 -51.053513 -6.167833 -0.026519 145.204590 -5.603344 0.727910 56.670399 -8.210264 -3.157530 
-12.138111 13.620281 -0.561709 0.000000 0.000000 0.000000 78.028107 0.016838 -0.029115 37.517429 0.220452 -0.067319 -10.322677 7.157356 1.673375 -34.458969 7.288018 0.225800 16.114090 36.217922 -116.044083 -8.221911 -32.501221 -0.571499 -16.007387 -5.957837 -0.458319 35.990700 1.359537 -16.942810 11.355728 -22.476612 -46.663860 20.461325 32.069683 6.875772 9.422414 8.796714 -0.452441 -37.049709 -34.152454 -7.003920 -51.056747 6.089967 0.001440 145.190674 5.509057 -0.724722 56.105225 8.187260 3.213877 -51.053509 -6.167833 -0.026519 145.204590 -5.603344 0.727910 56.670399 -8.210264 -3.157530 
-12.138111 13.620281 -0.561709 0.000000 0.000000 0.000000 78.028107 0.016838 -0.029115 37.517429 0.220452 -0.067319 -9.788350 7.157388 1.673332 -34.337963 7.090655 0.227174 16.000048 36.365059 -115.973305 -8.531771 -32.675587 -0.403145 -16.007387 -5.957837 -0.458319 35.990700 1.359537 -16.942810 10.852612 -22.464691 -46.960949 20.615526 32.324329 6.958415 9.596154 8.899734 -0.478557 -37.049709 -34.152454 -7.003920 -51.056740 6.089967 0.001440 145.190674 5.509057 -0.724722 56.105225 8.187260 3.213877 -51.053509 -6.167832 -0.026518 145.204590 -5.603344 0.727910 56.670399 -8.210264 -3.157530 
-12.138111 13.620281 -0.561709 0.000000 0.000000 0.000000 78.028107 0.016838 -0.029115 37.517429 0.220452 -0.067319 -9.253955 7.157419 1.673290 -34.217022 6.893284 0.228127 15.885572 36.512096 -115.902054 -8.842899 -32.849216 -0.233312 -16.007387 -5.957837 -0.458319 35.990700 1.359537 -16.942810 10.349406 -22.450338 -47.257984 20.770624 32.578835 7.042119 9.770002 9.002683 -0.504999 -37.049709 -34.152454 -7.003920 -51.056747 6.089967 0.001440 145.190674 5.509057 -0.724722 56.105225 8.187260 3.213877 -51.053513 -6.167833 -0.026519 145.204590 -5.603344 0.727910 56.670399 -8.210264 -3.157530 
-12.138111 13.620281 -0.561709 0.000000 0.000000 0.000000 78.028107 0.016838 -0.029115 37.517429 0.220452 -0.067319 -8.719514 7.157454 1.673248 -34.096127 6.695910 0.228660 15.770630 36.659008 -115.830269 -9.155300 -33.022095 -0.061998 -16.007387 -5.957837 -0.458319 35.990700 1.359537 -16.942810 9.846166 -22.433588 -47.554970 20.926626 32.833172 7.126890 9.943961 9.105560 -0.531767 -37.049709 -34.152454 -7.003920 -51.056740 6.089967 0.001440 145.190674 5.509057 -0.724722 56.105225 8.187260 3.213877 -51.053509 -6.167833 -0.026519 145.204590 -5.603344 0.727910 56.670399 -8.210264 -3.157530 
-12.138111 13.620281 -0.561709 0.000000 0.000000 0.000000 78.028107 0.016838 -0.029115 37.517429 0.220452 -0.067319 -8.185049 7.157486 1.673206 -33.975281 6.498532 0.228774 15.655243 36.805828 -115.757996 -9.468973 -33.194202 0.110803 -16.007387 -5.957837 -0.458319 35.990700 1.359537 -16.942810 9.342924 -22.414406 -47.851822 21.083542 33.087341 7.212743 10.118026 9.208358 -0.558860 -37.049709 -34.152454 -7.003920 -51.056747 6.089967 0.001440 145.190674 5.509057 -0.724722 56.105225 8.187260 3.213877 -51.053509 -6.167832 -0.026518 145.204590 -5.603344 0.727910 56.670399 -8.210264 -3.157530 
-12.138111 13.620281 -0.561709 0.000000 0.000000 0.000000 78.028107 0.016838 -0.029115 37.517429 0.220452 -0.067319 -7.650586 7.157520 1.673165 -33.854477 6.301154 0.228469 15.539392 36.952526 -115.685196 -9.783928 -33.365540 0.285091 -16.007387 -5.957837 -0.458319 35.990700 1.359537 -16.942810 8.839720 -22.392815 -48.148533 21.241392 33.341351 7.299689 10.292203 9.311084 -0.586278 -37.049709 -34.152454 -7.003920 -51.056740 6.089967 0.001440 145.190674 5.509057 -0.724722 56.105225 8.187260 3.213877 -51.053513 -6.167833 -0.026519 145.204590 -5.603344 0.727910 56.670399 -8.210264 -3.157530 
-12.138111 13.620281 -0.561709 0.000000 0.000000 0.000000 78.028107 0.016838 -0.029115 37.517429 0.220452 -0.067319 -7.116146 7.157557 1.673124 -33.733719 6.103780 0.227746 15.423075 37.099106 -115.611870 -10.100163 -33.536091 0.460871 -16.007387 -5.957837 -0.458319 35.990700 1.359537 -16.942810 8.336596 -22.368809 -48.445061 21.400177 33.595161 7.387733 10.466490 9.413732 -0.614023 -37.049709 -34.152454 -7.003920 -51.056747 6.089967 0.001440 145.190674 5.509057 -0.724722 56.105225 8.187260 3.213877 -51.053509 -6.167833 -0.026519 145.204590 -5.603344 0.727910 56.670399 -8.210264 -3.157530 
-12.138111 13.620281 -0.561709 0.000000 0.000000 0.000000 78.028107 0.016838 -0.029115 37.517429 0.220452 -0.067319 -6.581749 7.157590 1.673083 -33.613003 5.906410 0.226604 15.306307 37.245594 -115.538063 -10.417681 -33.705845 0.638143 -16.007387 -5.957837 -0.458319 35.990700 1.359537 -16.942810 7.833591 -22.342390 -48.741360 21.559916 33.848804 7.476896 10.640881 9.516295 -0.642093 -37.049709 -34.152454 -7.003920 -51.056740 6.089967 0.001440 145.190674 5.509057 -0.724722 56.105225 8.187261 3.213878 -51.053509 -6.167832 -0.026518 145.204590 -5.603344 0.727910 56.670399 -8.210264 -3.157530 
-12.138111 13.620281 -0.561709 0.000000 0.000000 0.000000 78.028107 0.016838 -0.029115 37.517429 0.220452 -0.067319 -6.047425 7.157626 1.673043 -33.492336 5.709048 0.225046 15.189062 37.391941 -115.463707 -10.736486 -33.874794 0.816913 -16.007387 -5.957837 -0.458319 35.990700 1.359537 -16.942810 7.330743 -22.313566 -49.037399 21.720627 34.102261 7.567187 10.815385 9.618782 -0.670490 -37.049709 -34.152454 -7.003920 -51.056747 6.089967 0.001440 145.190674 5.509057 -0.724722 56.105225 8.187261 3.213878 -51.053509 -6.167833 -0.026519 145.204590 -5.603344 0.727910 56.670399 -8.210264 -3.157530 
-12.138111 13.620281 -0.561709 0.000000 0.000000 0.000000 78.028107 0.016838 -0.029115 37.517429 0.220452 -0.067319 -5.513192 7.157660 1.673002 -33.371700 5.511695 0.223070 15.071342 37.538177 -115.388824 -11.056580 -34.042919 0.997180 -16.007387 -5.957837 -0.458319 35.990700 1.359537 -16.942810 6.828094 -22.282331 -49.333134 21.882307 34.355507 7.658613 10.990000 9.721185 -0.699212 -37.049709 -34.152454 -7.003920 -51.056740 6.089967 0.001440 145.190674 5.509057 -0.724722 56.105225 8.187261 3.213878 -51.053509 -6.167833 -0.026519 145.204590 -5.603344 0.727910 56.670399 -8.210264 -3.157530 
-12.138111 13.620281 -0.561709 0.000000 0.000000 0.000000 78.028107 0.016838 -0.029115 37.517429 0.220452 -0.067319 -4.979076 7.157696 1.672962 -33.251114 5.314358 0.220677 14.953151 37.684280 -115.313400 -11.377964 -34.210220 1.178949 -16.007387 -5.957837 -0.458319 35.990700 1.359537 -16.942810 6.325677 -22.248690 -49.628517 22.044975 34.608551 7.751188 11.164721 9.823499 -0.728261 -37.049709 -34.152454 -7.003920 -51.056747 6.089967 0.001440 145.190674 5.509057 -0.724722 56.105225 8.187261 3.213878 -51.053509 -6.167832 -0.026518 145.204590 -5.603344 0.727910 56.670399 -8.210264 -3.157530 
